<svg width="48" height="48" viewBox="0 0 48 48" fill="none" xmlns="http://www.w3.org/2000/svg">
<g clip-path="url(#clip0_2_168)">
<path d="M47.6091 13.3125C47.4715 13.1171 47.289 12.9576 47.0769 12.8475C46.8648 12.7373 46.6294 12.6797 46.3904 12.6796H14.5559L12.1462 4.36959C11.2012 1.09734 8.95561 0.744095 8.03461 0.744095H1.60936C0.785812 0.744095 0.119812 1.41084 0.119812 2.23359C0.119812 3.05634 0.786562 3.72305 1.60931 3.72305H8.03381C8.23706 3.72305 8.85731 3.72305 9.28036 5.1848L17.5701 35.6505C17.7501 36.2933 18.3359 36.7372 19.0041 36.7372H39.2526C39.8811 36.7372 40.4421 36.3435 40.6544 35.7517L47.7914 14.673C47.9556 14.2162 47.8874 13.7078 47.6091 13.3125H47.6091ZM38.2043 33.7591H20.1346L15.3931 15.6593H44.2726L38.2043 33.7591ZM35.2501 39.7561C33.1786 39.7561 31.5001 41.4346 31.5001 43.5061C31.5001 45.5776 33.1786 47.2561 35.2501 47.2561C37.3216 47.2561 39.0001 45.5776 39.0001 43.5061C39.0001 41.4346 37.3216 39.7561 35.2501 39.7561ZM21.7501 39.7561C19.6786 39.7561 18.0001 41.4346 18.0001 43.5061C18.0001 45.5776 19.6786 47.2561 21.7501 47.2561C23.8216 47.2561 25.5001 45.5776 25.5001 43.5061C25.5001 41.4346 23.8216 39.7561 21.7501 39.7561Z" fill="white"/>
</g>
<defs>
<clipPath id="clip0_2_168">
<rect width="48" height="48" fill="white"/>
</clipPath>
</defs>
</svg>
