<svg width="169" height="30" viewBox="0 0 169 30" fill="none" xmlns="http://www.w3.org/2000/svg">
<path d="M24.166 0C25.0294 0 25.6944 0.186667 26.161 0.559999C26.651 0.933334 26.896 1.44667 26.896 2.1C26.896 2.42667 26.8494 2.74167 26.756 3.045L25.846 6.3C25.6827 6.93 25.4377 7.37333 25.111 7.63C24.8077 7.86333 24.3644 7.98 23.781 7.98C23.221 7.98 22.7777 7.86333 22.451 7.63C22.1477 7.37333 21.9144 6.965 21.751 6.405L21.191 4.41C21.0744 3.99 20.9344 3.71 20.771 3.57C20.6077 3.43 20.2927 3.36 19.826 3.36H16.151L14.401 9.59H15.941C16.1044 9.59 16.326 9.47333 16.606 9.24L17.796 8.19C18.146 7.88667 18.4494 7.665 18.706 7.525C18.9627 7.385 19.2777 7.315 19.651 7.315C20.071 7.315 20.4094 7.43167 20.666 7.665C20.946 7.875 21.086 8.155 21.086 8.505C21.086 8.59833 21.0627 8.73833 21.016 8.925L19.581 13.79C19.441 14.3033 19.196 14.6883 18.846 14.945C18.5194 15.1783 18.1577 15.295 17.761 15.295C17.1077 15.295 16.6177 14.9567 16.291 14.28L15.696 13.055C15.5327 12.705 15.276 12.53 14.926 12.53H13.561L11.496 19.95H14.576C15.0194 19.95 15.4044 19.8683 15.731 19.705C16.081 19.5183 16.4544 19.2033 16.851 18.76L18.951 16.45C19.3244 16.0533 19.6744 15.7733 20.001 15.61C20.351 15.4233 20.771 15.33 21.261 15.33C21.7744 15.33 22.1944 15.4467 22.521 15.68C22.8477 15.9133 23.011 16.2633 23.011 16.73C23.011 16.9167 22.976 17.1383 22.906 17.395L21.891 20.93C21.6344 21.8167 21.261 22.435 20.771 22.785C20.281 23.135 19.5694 23.31 18.636 23.31H1.94103C1.45103 23.31 1.0777 23.2283 0.821032 23.065C0.541032 22.9017 0.401031 22.68 0.401031 22.4C0.401031 22.26 0.436031 22.1083 0.506031 21.945C0.599364 21.6883 0.751031 21.49 0.961031 21.35C1.17103 21.21 1.29936 21.1283 1.34603 21.105C1.71936 20.8717 2.0227 20.6383 2.25603 20.405C2.48936 20.1483 2.6877 19.74 2.85103 19.18L7.15603 4.095C7.24937 3.79167 7.29603 3.51167 7.29603 3.255C7.29603 2.975 7.24937 2.74167 7.15603 2.555C7.08603 2.36833 6.96937 2.17 6.80603 1.96C6.59603 1.65667 6.49103 1.41167 6.49103 1.225C6.49103 1.155 6.51436 1.02667 6.56103 0.84C6.65437 0.536667 6.86437 0.326666 7.19103 0.209999C7.5177 0.0699995 7.99603 0 8.62603 0H24.166Z" fill="white"/>
<path d="M29.1675 10.99C29.3308 10.3133 29.6691 9.78833 30.1825 9.415C30.6958 9.04167 31.3258 8.855 32.0725 8.855H40.2275C41.5108 8.855 42.1525 9.35667 42.1525 10.36C42.1525 10.6167 42.1291 10.8267 42.0825 10.99C41.6391 12.4133 40.6591 13.125 39.1425 13.125H30.9875C30.3575 13.125 29.8791 13.0083 29.5525 12.775C29.2258 12.5183 29.0625 12.1567 29.0625 11.69C29.0625 11.4567 29.0975 11.2233 29.1675 10.99Z" fill="white"/>
<path d="M56.2342 4.48C58.1709 4.48 59.8392 4.655 61.2392 5.005C62.6626 5.355 63.7476 5.845 64.4942 6.475C65.2642 7.105 65.6492 7.81667 65.6492 8.61C65.6492 9.42667 65.3226 10.0917 64.6692 10.605C64.0392 11.1183 63.1526 11.375 62.0092 11.375C60.8426 11.375 59.8509 11.0833 59.0342 10.5C58.2409 9.91667 57.8442 9.18167 57.8442 8.295C57.8442 7.99167 57.8909 7.7 57.9842 7.42C57.5642 7.30333 57.1909 7.245 56.8642 7.245C56.2809 7.245 55.7909 7.385 55.3942 7.665C55.0209 7.945 54.8459 8.34167 54.8692 8.855C54.8692 9.46167 55.1726 9.975 55.7792 10.395C56.3859 10.815 57.3659 11.34 58.7192 11.97C59.8859 12.4833 60.8426 12.9617 61.5892 13.405C62.3592 13.825 63.0009 14.3617 63.5142 15.015C64.0509 15.6683 64.3192 16.4383 64.3192 17.325C64.3192 17.5117 64.2726 17.8617 64.1792 18.375C63.8059 19.9383 62.7676 21.175 61.0642 22.085C59.3609 22.995 57.1209 23.45 54.3442 23.45C51.2176 23.45 48.7326 23.03 46.8892 22.19C45.0692 21.35 44.1592 20.195 44.1592 18.725C44.1592 17.7217 44.4626 16.9633 45.0692 16.45C45.6759 15.9367 46.4809 15.68 47.4842 15.68C48.6509 15.68 49.6426 16.0417 50.4592 16.765C51.2992 17.4883 51.7192 18.41 51.7192 19.53C51.7192 19.8333 51.6842 20.1483 51.6142 20.475C52.1742 20.615 52.7109 20.685 53.2242 20.685C53.8309 20.685 54.3326 20.5217 54.7292 20.195C55.1259 19.8683 55.3242 19.4133 55.3242 18.83C55.3009 18.2933 55.0326 17.8383 54.5192 17.465C54.0059 17.0683 53.1892 16.6017 52.0692 16.065C51.0192 15.575 50.1559 15.12 49.4792 14.7C48.8026 14.2567 48.2192 13.7083 47.7292 13.055C47.2626 12.4017 47.0292 11.6317 47.0292 10.745C47.0292 8.83167 47.8226 7.315 49.4092 6.195C51.0192 5.05166 53.2942 4.48 56.2342 4.48Z" fill="white"/>
<path d="M83.7713 4.655C85.568 4.655 86.9796 5.25 88.0063 6.44C89.033 7.63 89.5463 9.25167 89.5463 11.305C89.5463 12.4017 89.3946 13.5567 89.0913 14.77C88.3913 17.6633 87.0846 19.8683 85.1713 21.385C83.258 22.8783 81.0413 23.625 78.5213 23.625C76.9113 23.625 75.5113 23.2867 74.3213 22.61L73.2013 26.355C73.108 26.6117 73.0613 26.8567 73.0613 27.09C73.0613 27.3467 73.1196 27.5567 73.2363 27.72C73.353 27.9067 73.5046 28.0817 73.6913 28.245C73.878 28.4317 73.9946 28.5833 74.0413 28.7C74.1113 28.8167 74.123 28.9567 74.0763 29.12C73.983 29.4233 73.7613 29.6333 73.4113 29.75C73.0613 29.89 72.5246 29.96 71.8013 29.96H63.7863C63.1796 29.96 62.748 29.855 62.4913 29.645C62.2113 29.4583 62.1296 29.2133 62.2463 28.91C62.293 28.7233 62.3746 28.5717 62.4913 28.455C62.608 28.3383 62.7713 28.2333 62.9813 28.14C63.3313 27.9067 63.6113 27.6617 63.8213 27.405C64.0313 27.1717 64.218 26.7867 64.3813 26.25L69.4913 9.485C69.5613 9.275 69.5963 9.1 69.5963 8.96C69.5963 8.70333 69.538 8.505 69.4213 8.365C69.3046 8.20167 69.1296 8.03833 68.8963 7.875C68.663 7.68833 68.4996 7.525 68.4063 7.385C68.313 7.245 68.3013 7.05833 68.3713 6.825C68.5113 6.28833 69.2463 5.82167 70.5763 5.425C71.9063 5.005 73.2946 4.795 74.7413 4.795C75.768 4.795 76.608 5.05167 77.2613 5.565C77.938 6.07833 78.323 6.79 78.4163 7.7C80.003 5.67 81.788 4.655 83.7713 4.655ZM79.7113 15.05C80.2713 12.9733 80.5513 11.5383 80.5513 10.745C80.5513 10.255 80.4696 9.94 80.3063 9.8C80.1663 9.63667 79.9563 9.555 79.6763 9.555C79.4663 9.555 79.198 9.66 78.8713 9.87C78.5446 10.0567 78.218 10.3833 77.8913 10.85L75.1263 20.02C75.4063 20.3 75.7446 20.44 76.1413 20.44C76.7713 20.44 77.3663 20.09 77.9263 19.39C78.5096 18.6667 79.1046 17.22 79.7113 15.05Z" fill="white"/>
<path d="M103.211 4.795C106.384 4.795 108.717 5.43666 110.211 6.72C111.727 8.00333 112.486 9.68333 112.486 11.76C112.486 12.46 112.392 13.2417 112.206 14.105C111.762 16.0183 110.934 17.6983 109.721 19.145C108.507 20.5683 107.014 21.6767 105.241 22.47C103.491 23.24 101.589 23.625 99.5355 23.625C96.2922 23.625 93.8889 22.9833 92.3255 21.7C90.7855 20.3933 90.0155 18.6667 90.0155 16.52C90.0155 15.7967 90.1088 14.9917 90.2955 14.105C90.7389 12.285 91.5789 10.675 92.8155 9.275C94.0755 7.85167 95.6039 6.755 97.4005 5.985C99.2205 5.19167 101.157 4.795 103.211 4.795ZM103.106 7.91C102.616 7.91 102.091 8.35333 101.531 9.24C100.994 10.1033 100.352 11.7483 99.6055 14.175C98.8589 16.6017 98.4855 18.305 98.4855 19.285C98.4855 19.7983 98.5672 20.1483 98.7305 20.335C98.8939 20.4983 99.1155 20.58 99.3955 20.58C99.8855 20.6267 100.387 20.2067 100.901 19.32C101.437 18.4333 102.102 16.7067 102.896 14.14C103.619 11.8767 103.981 10.2317 103.981 9.205C103.981 8.715 103.899 8.37667 103.736 8.19C103.596 8.00333 103.386 7.91 103.106 7.91Z" fill="white"/>
<path d="M129.819 4.795C131.126 4.795 132.164 5.19167 132.934 5.985C133.728 6.77833 134.124 7.75833 134.124 8.925C134.124 9.36833 134.078 9.77667 133.984 10.15C133.751 11.1067 133.308 11.8417 132.654 12.355C132.001 12.8683 131.219 13.125 130.309 13.125C129.423 13.125 128.746 12.915 128.279 12.495C127.836 12.075 127.439 11.515 127.089 10.815C126.903 10.4183 126.728 10.1267 126.564 9.94C126.401 9.75333 126.214 9.66 126.004 9.66C125.771 9.66 125.561 9.75333 125.374 9.94C125.211 10.1267 125.059 10.4533 124.919 10.92L122.224 19.67C122.178 19.7867 122.154 19.9617 122.154 20.195C122.154 20.4983 122.236 20.755 122.399 20.965C122.586 21.1517 122.831 21.3383 123.134 21.525C123.414 21.7117 123.601 21.8633 123.694 21.98C123.788 22.0967 123.823 22.2483 123.799 22.435C123.753 22.7383 123.578 22.96 123.274 23.1C122.994 23.24 122.504 23.31 121.804 23.31H112.844C112.238 23.31 111.806 23.2167 111.549 23.03C111.269 22.82 111.164 22.5517 111.234 22.225C111.328 21.945 111.573 21.7 111.969 21.49C112.319 21.3033 112.611 21.0817 112.844 20.825C113.078 20.5683 113.276 20.16 113.439 19.6L116.554 9.485C116.601 9.36833 116.624 9.205 116.624 8.995C116.624 8.73833 116.566 8.54 116.449 8.4C116.356 8.26 116.193 8.085 115.959 7.875C115.726 7.68833 115.563 7.525 115.469 7.385C115.376 7.245 115.364 7.05833 115.434 6.825C115.574 6.28833 116.309 5.82167 117.639 5.425C118.969 5.005 120.358 4.795 121.804 4.795C122.761 4.795 123.554 5.01666 124.184 5.46C124.814 5.88 125.223 6.48667 125.409 7.28C126.529 5.62333 127.999 4.795 129.819 4.795Z" fill="white"/>
<path d="M148.548 5.25C148.991 5.25 149.329 5.34333 149.563 5.53C149.82 5.71667 149.948 5.97333 149.948 6.3C149.948 6.39333 149.924 6.55667 149.878 6.79C149.575 7.81667 148.874 8.33 147.778 8.33H145.748L143.123 16.975C143.006 17.325 142.948 17.6867 142.948 18.06C142.948 18.48 143.064 18.7717 143.298 18.935C143.531 19.0983 143.858 19.18 144.278 19.18C144.651 19.18 145.118 19.1333 145.678 19.04C145.958 18.97 146.203 18.935 146.413 18.935C146.576 18.935 146.693 18.9933 146.763 19.11C146.856 19.2033 146.903 19.3317 146.903 19.495C146.926 19.9617 146.576 20.5333 145.853 21.21C145.153 21.8633 144.196 22.435 142.983 22.925C141.77 23.3917 140.428 23.625 138.958 23.625C137.371 23.625 136.1 23.2633 135.143 22.54C134.186 21.8167 133.708 20.825 133.708 19.565C133.708 18.9817 133.801 18.4217 133.988 17.885L136.228 10.955C136.344 10.5583 136.403 10.2433 136.403 10.01C136.403 9.54333 136.286 9.14667 136.053 8.82C135.843 8.49333 135.54 8.155 135.143 7.805C134.793 7.47833 134.548 7.21 134.408 7C134.268 6.76667 134.233 6.49833 134.303 6.195C134.396 5.89166 134.594 5.65833 134.898 5.495C135.201 5.33167 135.679 5.25 136.333 5.25H138.293L140.498 3.045C141.268 2.275 141.968 1.73833 142.598 1.435C143.251 1.13167 144.091 0.98 145.118 0.98C146.588 0.98 147.323 1.54 147.323 2.66C147.323 3.01 147.276 3.33667 147.183 3.64L146.693 5.25H148.548Z" fill="white"/>
<path d="M159.457 4.48C161.394 4.48 163.062 4.655 164.462 5.005C165.885 5.355 166.97 5.845 167.717 6.475C168.487 7.105 168.872 7.81667 168.872 8.61C168.872 9.42667 168.545 10.0917 167.892 10.605C167.262 11.1183 166.375 11.375 165.232 11.375C164.065 11.375 163.074 11.0833 162.257 10.5C161.464 9.91667 161.067 9.18167 161.067 8.295C161.067 7.99167 161.114 7.7 161.207 7.42C160.787 7.30333 160.414 7.245 160.087 7.245C159.504 7.245 159.014 7.385 158.617 7.665C158.244 7.945 158.069 8.34167 158.092 8.855C158.092 9.46167 158.395 9.975 159.002 10.395C159.609 10.815 160.589 11.34 161.942 11.97C163.109 12.4833 164.065 12.9617 164.812 13.405C165.582 13.825 166.224 14.3617 166.737 15.015C167.274 15.6683 167.542 16.4383 167.542 17.325C167.542 17.5117 167.495 17.8617 167.402 18.375C167.029 19.9383 165.99 21.175 164.287 22.085C162.584 22.995 160.344 23.45 157.567 23.45C154.44 23.45 151.955 23.03 150.112 22.19C148.292 21.35 147.382 20.195 147.382 18.725C147.382 17.7217 147.685 16.9633 148.292 16.45C148.899 15.9367 149.704 15.68 150.707 15.68C151.874 15.68 152.865 16.0417 153.682 16.765C154.522 17.4883 154.942 18.41 154.942 19.53C154.942 19.8333 154.907 20.1483 154.837 20.475C155.397 20.615 155.934 20.685 156.447 20.685C157.054 20.685 157.555 20.5217 157.952 20.195C158.349 19.8683 158.547 19.4133 158.547 18.83C158.524 18.2933 158.255 17.8383 157.742 17.465C157.229 17.0683 156.412 16.6017 155.292 16.065C154.242 15.575 153.379 15.12 152.702 14.7C152.025 14.2567 151.442 13.7083 150.952 13.055C150.485 12.4017 150.252 11.6317 150.252 10.745C150.252 8.83167 151.045 7.315 152.632 6.195C154.242 5.05166 156.517 4.48 159.457 4.48Z" fill="white"/>
</svg>
